<mxfile host="Electron" agent="Mozilla/5.0 (Windows NT 10.0; Win64; x64) AppleWebKit/537.36 (KHTML, like Gecko) draw.io/22.1.16 Chrome/120.0.6099.109 Electron/28.1.0 Safari/537.36" modified="2025-11-01T18:33:42.497Z" version="22.1.16" etag="lxcngRmZ1YsOgm8FH5ih" type="device">
  <diagram name="pid" id="dJs5ANWagsqdlJFfiotf">
    <mxGraphModel dx="1877" dy="638" grid="1" gridSize="10" guides="1" tooltips="1" connect="1" arrows="1" fold="1" page="1" pageScale="1" pageWidth="827" pageHeight="1169" math="1" shadow="0">
      <root>
        <mxCell id="0" />
        <mxCell id="1" parent="0" />
        <mxCell id="OJU23E8Mb1LuJJcbQzA--11" style="edgeStyle=orthogonalEdgeStyle;rounded=0;orthogonalLoop=1;jettySize=auto;html=1;entryX=0.5;entryY=1;entryDx=0;entryDy=0;strokeWidth=2;" parent="1" edge="1">
          <mxGeometry relative="1" as="geometry">
            <mxPoint x="480" y="180" as="sourcePoint" />
            <Array as="points">
              <mxPoint x="480" y="180" />
              <mxPoint x="480" y="260" />
              <mxPoint x="54" y="260" />
            </Array>
            <mxPoint x="54" y="205" as="targetPoint" />
          </mxGeometry>
        </mxCell>
        <mxCell id="LIWvImoyEe9rYmUd4Uaq-3" style="edgeStyle=orthogonalEdgeStyle;rounded=0;orthogonalLoop=1;jettySize=auto;html=1;strokeWidth=2;" edge="1" parent="1" source="OJU23E8Mb1LuJJcbQzA--1">
          <mxGeometry relative="1" as="geometry">
            <mxPoint x="520" y="180" as="targetPoint" />
          </mxGeometry>
        </mxCell>
        <mxCell id="OJU23E8Mb1LuJJcbQzA--1" value="&lt;font style=&quot;border-color: var(--border-color);&quot; size=&quot;1&quot;&gt;&lt;b style=&quot;border-color: var(--border-color); font-size: 15px;&quot;&gt;Planta&lt;/b&gt;&lt;/font&gt;&lt;div style=&quot;border-color: var(--border-color);&quot;&gt;&lt;font style=&quot;border-color: var(--border-color); font-size: 20px;&quot;&gt;$$G(z)$$&lt;/font&gt;&lt;/div&gt;" style="rounded=1;whiteSpace=wrap;html=1;" parent="1" vertex="1">
          <mxGeometry x="317" y="130" width="120" height="100" as="geometry" />
        </mxCell>
        <mxCell id="OJU23E8Mb1LuJJcbQzA--6" style="edgeStyle=orthogonalEdgeStyle;rounded=0;orthogonalLoop=1;jettySize=auto;html=1;strokeWidth=2;exitX=1;exitY=0.5;exitDx=0;exitDy=0;" parent="1" target="OJU23E8Mb1LuJJcbQzA--1" edge="1" source="LIWvImoyEe9rYmUd4Uaq-1">
          <mxGeometry relative="1" as="geometry">
            <mxPoint x="258" y="184" as="sourcePoint" />
          </mxGeometry>
        </mxCell>
        <mxCell id="OJU23E8Mb1LuJJcbQzA--5" style="edgeStyle=orthogonalEdgeStyle;rounded=0;orthogonalLoop=1;jettySize=auto;html=1;strokeWidth=2;" parent="1" source="OJU23E8Mb1LuJJcbQzA--4" edge="1" target="LIWvImoyEe9rYmUd4Uaq-1">
          <mxGeometry relative="1" as="geometry">
            <mxPoint x="140" y="180" as="targetPoint" />
          </mxGeometry>
        </mxCell>
        <mxCell id="OJU23E8Mb1LuJJcbQzA--12" style="edgeStyle=orthogonalEdgeStyle;rounded=0;orthogonalLoop=1;jettySize=auto;html=1;endArrow=none;endFill=0;startArrow=classic;startFill=1;strokeWidth=2;" parent="1" source="OJU23E8Mb1LuJJcbQzA--4" edge="1">
          <mxGeometry relative="1" as="geometry">
            <mxPoint x="-30" y="180" as="targetPoint" />
          </mxGeometry>
        </mxCell>
        <mxCell id="OJU23E8Mb1LuJJcbQzA--4" value="" style="shape=orEllipse;perimeter=ellipsePerimeter;whiteSpace=wrap;html=1;backgroundOutline=1;" parent="1" vertex="1">
          <mxGeometry x="30" y="155" width="50" height="50" as="geometry" />
        </mxCell>
        <mxCell id="OJU23E8Mb1LuJJcbQzA--8" value="&lt;font style=&quot;font-size: 20px;&quot;&gt;$$y$$&lt;/font&gt;" style="whiteSpace=wrap;html=1;rounded=1;strokeColor=none;fillColor=none;" parent="1" vertex="1">
          <mxGeometry x="480" y="129" width="40" height="60" as="geometry" />
        </mxCell>
        <mxCell id="OJU23E8Mb1LuJJcbQzA--13" value="&lt;font style=&quot;font-size: 20px;&quot;&gt;$$r$$&lt;/font&gt;" style="whiteSpace=wrap;html=1;rounded=1;strokeColor=none;fillColor=none;" parent="1" vertex="1">
          <mxGeometry x="-30" y="140" width="40" height="30" as="geometry" />
        </mxCell>
        <mxCell id="OJU23E8Mb1LuJJcbQzA--14" value="&lt;font style=&quot;font-size: 20px;&quot;&gt;$$u$$&lt;/font&gt;" style="whiteSpace=wrap;html=1;rounded=1;strokeColor=none;fillColor=none;" parent="1" vertex="1">
          <mxGeometry x="257" y="144" width="40" height="30" as="geometry" />
        </mxCell>
        <mxCell id="OJU23E8Mb1LuJJcbQzA--15" value="&lt;font style=&quot;font-size: 20px;&quot;&gt;$$-$$&lt;/font&gt;" style="whiteSpace=wrap;html=1;rounded=1;strokeColor=none;fillColor=none;" parent="1" vertex="1">
          <mxGeometry x="10" y="205" width="30" height="30" as="geometry" />
        </mxCell>
        <mxCell id="OJU23E8Mb1LuJJcbQzA--16" value="&lt;font style=&quot;font-size: 20px;&quot;&gt;$$e$$&lt;/font&gt;" style="whiteSpace=wrap;html=1;rounded=1;strokeColor=none;fillColor=none;" parent="1" vertex="1">
          <mxGeometry x="90" y="145" width="20" height="20" as="geometry" />
        </mxCell>
        <mxCell id="LIWvImoyEe9rYmUd4Uaq-1" value="&lt;font style=&quot;border-color: var(--border-color);&quot; size=&quot;1&quot;&gt;&lt;b style=&quot;border-color: var(--border-color); font-size: 15px;&quot;&gt;PID&lt;/b&gt;&lt;/font&gt;&lt;div style=&quot;border-color: var(--border-color);&quot;&gt;&lt;font style=&quot;border-color: var(--border-color); font-size: 20px;&quot;&gt;$$C(z)$$&lt;/font&gt;&lt;/div&gt;" style="rounded=1;whiteSpace=wrap;html=1;" vertex="1" parent="1">
          <mxGeometry x="120.74000000000001" y="130" width="120" height="100" as="geometry" />
        </mxCell>
      </root>
    </mxGraphModel>
  </diagram>
</mxfile>
